<svg width="1456" height="1342" viewBox="0 0 1456 1342" fill="none" xmlns="http://www.w3.org/2000/svg">
<g clip-path="url(#clip0_818_5372)">
<path d="M18.6458 123.261H75.6153C80.5597 123.261 85.3013 121.296 88.7973 117.8C92.2933 114.303 94.2572 109.561 94.2571 104.617V18.6739C94.2574 13.7217 92.2904 8.97211 88.7888 5.47008C85.2873 1.96805 80.538 0.000408214 75.5857 0L51.8291 0L0.00146486 51.8276V104.616C0.00137502 107.065 0.48356 109.489 1.42049 111.751C2.35742 114.014 3.73074 116.069 5.46204 117.8C7.19334 119.532 9.24871 120.905 11.5108 121.842C13.7729 122.779 16.1974 123.261 18.6458 123.261V123.261ZM33.1474 30.5559H61.2213L61.1137 92.7032H33.1474V30.5559Z" stroke="white" stroke-width="3"/>
<path d="M75.6025 132.672H18.6497C16.2005 132.672 13.7753 133.155 11.5126 134.092C9.24988 135.029 7.19391 136.403 5.46211 138.134C3.7303 139.866 2.35658 141.922 1.41939 144.185C0.482199 146.448 -0.000112287 148.873 1.96084e-08 151.322L1.96084e-08 237.314C-0.000112285 239.763 0.482197 242.188 1.41939 244.451C2.35658 246.713 3.7303 248.769 5.4621 250.501C7.1939 252.233 9.24986 253.607 11.5126 254.544C13.7753 255.481 16.2005 255.964 18.6497 255.963H75.6025C78.0553 255.964 80.4841 255.48 82.7502 254.542C85.0163 253.603 87.0753 252.227 88.8097 250.493C90.544 248.759 91.9198 246.7 92.8584 244.433C93.797 242.167 94.2801 239.739 94.2801 237.286V184.563H43.7078V209.946H61.2364V225.4H33.154V163.238H61.2364V174.452H94.2801V151.352C94.2799 146.398 92.3121 141.647 88.8095 138.144C85.3069 134.641 80.5563 132.673 75.6025 132.672V132.672Z" stroke="white" stroke-width="3"/>
<path d="M348.576 204.388V151.322C348.576 148.873 348.093 146.448 347.156 144.185C346.219 141.922 344.845 139.866 343.113 138.134C341.382 136.402 339.325 135.029 337.063 134.092C334.8 133.154 332.375 132.672 329.925 132.672H254.295V255.963H297L348.576 204.388ZM287.34 163.238H315.422V225.4H287.34V163.238Z" stroke="white" stroke-width="3"/>
<path d="M180.772 212.519V207.841C185.717 207.84 190.459 205.876 193.956 202.38C197.452 198.883 199.416 194.141 199.417 189.197V151.389C199.416 146.444 197.452 141.702 193.955 138.206C190.459 134.709 185.717 132.745 180.772 132.745H105.159V256.006H138.303V214.057H154.879L168.344 256.006H204.598L194.428 222.634C193.536 219.707 191.727 217.145 189.269 215.324C186.81 213.503 183.832 212.52 180.772 212.519V212.519ZM166.271 181.947H138.303V163.302H166.271V181.947Z" stroke="white" stroke-width="3"/>
<path d="M243.287 132.753H210.134V256.044H243.287V132.753Z" stroke="white" stroke-width="3"/>
<path d="M192.703 46.7668H139.798V30.7127H197.447V0.157227H106.062V123.417L139.798 123.462V77.324H192.703V46.7668Z" stroke="white" stroke-width="3"/>
<path d="M296.775 46.7668H243.87V30.7127H301.52V0.157227H210.134V123.417L243.87 123.462V77.324H296.775V46.7668Z" stroke="white" stroke-width="3"/>
</g>
<g clip-path="url(#clip1_818_5372)">
<path d="M387.787 123.261H444.757C449.701 123.261 454.443 121.296 457.939 117.8C461.435 114.303 463.399 109.561 463.399 104.617V18.6739C463.399 13.7217 461.432 8.97211 457.93 5.47008C454.429 1.96805 449.68 0.000408214 444.727 0L420.971 0L369.143 51.8276V104.616C369.143 107.065 369.625 109.489 370.562 111.751C371.499 114.014 372.872 116.069 374.604 117.8C376.335 119.532 378.39 120.905 380.652 121.842C382.914 122.779 385.339 123.261 387.787 123.261V123.261ZM402.289 30.5559H430.363L430.255 92.7032H402.289V30.5559Z" stroke="white" stroke-width="3"/>
<path d="M444.744 132.672H387.791C385.342 132.672 382.917 133.155 380.654 134.092C378.391 135.029 376.336 136.403 374.604 138.134C372.872 139.866 371.498 141.922 370.561 144.185C369.624 146.448 369.141 148.873 369.142 151.322V237.314C369.141 239.763 369.624 242.188 370.561 244.451C371.498 246.713 372.872 248.769 374.604 250.501C376.335 252.233 378.391 253.607 380.654 254.544C382.917 255.481 385.342 255.964 387.791 255.963H444.744C447.197 255.964 449.626 255.48 451.892 254.542C454.158 253.603 456.217 252.227 457.951 250.493C459.686 248.759 461.061 246.7 462 244.433C462.939 242.167 463.422 239.739 463.422 237.286V184.563H412.849V209.946H430.378V225.4H402.296V163.238H430.378V174.452H463.422V151.352C463.422 146.398 461.454 141.647 457.951 138.144C454.448 134.641 449.698 132.673 444.744 132.672V132.672Z" stroke="white" stroke-width="3"/>
<path d="M717.717 204.388V151.322C717.717 148.873 717.235 146.448 716.298 144.185C715.361 141.922 713.987 139.866 712.255 138.134C710.523 136.402 708.467 135.029 706.204 134.092C703.941 133.154 701.516 132.672 699.067 132.672H623.437V255.963H666.142L717.717 204.388ZM656.482 163.238H684.564V225.4H656.482V163.238Z" stroke="white" stroke-width="3"/>
<path d="M549.914 212.519V207.841C554.859 207.84 559.601 205.876 563.097 202.38C566.594 198.883 568.558 194.141 568.558 189.197V151.389C568.558 146.444 566.594 141.702 563.097 138.206C559.601 134.709 554.859 132.745 549.914 132.745H474.3V256.006H507.445V214.057H524.021L537.486 256.006H573.74L563.57 222.634C562.677 219.707 560.869 217.145 558.41 215.324C555.952 213.503 552.973 212.52 549.914 212.519V212.519ZM535.413 181.947H507.444V163.302H535.413V181.947Z" stroke="white" stroke-width="3"/>
<path d="M612.429 132.753H579.275V256.044H612.429V132.753Z" stroke="white" stroke-width="3"/>
<path d="M561.844 46.7668H508.939V30.7127H566.589V0.157227H475.203V123.417L508.939 123.462V77.324H561.844V46.7668Z" stroke="white" stroke-width="3"/>
<path d="M665.917 46.7668H613.012V30.7127H670.661V0.157227H579.275V123.417L613.012 123.462V77.324H665.917V46.7668Z" stroke="white" stroke-width="3"/>
</g>
<g clip-path="url(#clip2_818_5372)">
<path d="M756.929 123.261H813.898C818.843 123.261 823.585 121.296 827.081 117.8C830.576 114.303 832.54 109.561 832.54 104.617V18.6739C832.541 13.7217 830.574 8.97211 827.072 5.47008C823.57 1.96805 818.821 0.000408214 813.869 0L790.112 0L738.285 51.8276V104.616C738.285 107.065 738.767 109.489 739.704 111.751C740.641 114.014 742.014 116.069 743.745 117.8C745.477 119.532 747.532 120.905 749.794 121.842C752.056 122.779 754.481 123.261 756.929 123.261V123.261ZM771.431 30.5559H799.504L799.397 92.7032H771.431V30.5559Z" stroke="white" stroke-width="3"/>
<path d="M813.885 132.672H756.933C754.483 132.672 752.058 133.155 749.796 134.092C747.533 135.029 745.477 136.403 743.745 138.134C742.013 139.866 740.64 141.922 739.702 144.185C738.765 146.448 738.283 148.873 738.283 151.322V237.314C738.283 239.763 738.765 242.188 739.702 244.451C740.64 246.713 742.013 248.769 743.745 250.501C745.477 252.233 747.533 253.607 749.796 254.544C752.058 255.481 754.483 255.964 756.933 255.963H813.885C816.338 255.964 818.767 255.48 821.033 254.542C823.299 253.603 825.358 252.227 827.093 250.493C828.827 248.759 830.203 246.7 831.141 244.433C832.08 242.167 832.563 239.739 832.563 237.286V184.563H781.991V209.946H799.519V225.4H771.437V163.238H799.519V174.452H832.563V151.352C832.563 146.398 830.595 141.647 827.092 138.144C823.59 134.641 818.839 132.673 813.885 132.672V132.672Z" stroke="white" stroke-width="3"/>
<path d="M1086.86 204.388V151.322C1086.86 148.873 1086.38 146.448 1085.44 144.185C1084.5 141.922 1083.13 139.866 1081.4 138.134C1079.66 136.402 1077.61 135.029 1075.35 134.092C1073.08 133.154 1070.66 132.672 1068.21 132.672H992.578V255.963H1035.28L1086.86 204.388ZM1025.62 163.238H1053.71V225.4H1025.62V163.238Z" stroke="white" stroke-width="3"/>
<path d="M919.055 212.519V207.841C924 207.84 928.742 205.876 932.238 202.38C935.735 198.883 937.699 194.141 937.7 189.197V151.389C937.699 146.444 935.735 141.702 932.238 138.206C928.742 134.709 924 132.745 919.055 132.745H843.442V256.006H876.586V214.057H893.162L906.627 256.006H942.881L932.711 222.634C931.819 219.707 930.01 217.145 927.551 215.324C925.093 213.503 922.115 212.52 919.055 212.519V212.519ZM904.554 181.947H876.586V163.302H904.554V181.947Z" stroke="white" stroke-width="3"/>
<path d="M981.57 132.753H948.417V256.044H981.57V132.753Z" stroke="white" stroke-width="3"/>
<path d="M930.986 46.7668H878.081V30.7127H935.73V0.157227H844.344V123.417L878.081 123.462V77.324H930.986V46.7668Z" stroke="white" stroke-width="3"/>
<path d="M1035.06 46.7668H982.153V30.7127H1039.8V0.157227H948.417V123.417L982.153 123.462V77.324H1035.06V46.7668Z" stroke="white" stroke-width="3"/>
</g>
<g clip-path="url(#clip3_818_5372)">
<path d="M1126.07 123.261H1183.04C1187.98 123.261 1192.73 121.296 1196.22 117.8C1199.72 114.303 1201.68 109.561 1201.68 104.617V18.6739C1201.68 13.7217 1199.71 8.97211 1196.21 5.47008C1192.71 1.96805 1187.96 0.000408214 1183.01 0L1159.25 0L1107.43 51.8276V104.616C1107.43 107.065 1107.91 109.489 1108.85 111.751C1109.78 114.014 1111.16 116.069 1112.89 117.8C1114.62 119.532 1116.67 120.905 1118.94 121.842C1121.2 122.779 1123.62 123.261 1126.07 123.261V123.261ZM1140.57 30.5559H1168.65L1168.54 92.7032H1140.57V30.5559Z" stroke="white" stroke-width="3"/>
<path d="M1183.03 132.672H1126.07C1123.62 132.672 1121.2 133.155 1118.94 134.092C1116.67 135.029 1114.62 136.403 1112.89 138.134C1111.15 139.866 1109.78 141.922 1108.84 144.185C1107.91 146.448 1107.42 148.873 1107.42 151.322V237.314C1107.42 239.763 1107.91 242.188 1108.84 244.451C1109.78 246.713 1111.15 248.769 1112.89 250.501C1114.62 252.233 1116.67 253.607 1118.94 254.544C1121.2 255.481 1123.62 255.964 1126.07 255.963H1183.03C1185.48 255.964 1187.91 255.48 1190.17 254.542C1192.44 253.603 1194.5 252.227 1196.23 250.493C1197.97 248.759 1199.34 246.7 1200.28 244.433C1201.22 242.167 1201.7 239.739 1201.7 237.286V184.563H1151.13V209.946H1168.66V225.4H1140.58V163.238H1168.66V174.452H1201.7V151.352C1201.7 146.398 1199.74 141.647 1196.23 138.144C1192.73 134.641 1187.98 132.673 1183.03 132.672V132.672Z" stroke="white" stroke-width="3"/>
<path d="M1456 204.388V151.322C1456 148.873 1455.52 146.448 1454.58 144.185C1453.64 141.922 1452.27 139.866 1450.54 138.134C1448.81 136.402 1446.75 135.029 1444.49 134.092C1442.22 133.154 1439.8 132.672 1437.35 132.672H1361.72V255.963H1404.42L1456 204.388ZM1394.76 163.238H1422.85V225.4H1394.76V163.238Z" stroke="white" stroke-width="3"/>
<path d="M1288.2 212.519V207.841C1293.14 207.84 1297.88 205.876 1301.38 202.38C1304.88 198.883 1306.84 194.141 1306.84 189.197V151.389C1306.84 146.444 1304.88 141.702 1301.38 138.206C1297.88 134.709 1293.14 132.745 1288.2 132.745H1212.58V256.006H1245.73V214.057H1262.3L1275.77 256.006H1312.02L1301.85 222.634C1300.96 219.707 1299.15 217.145 1296.69 215.324C1294.23 213.503 1291.26 212.52 1288.2 212.519V212.519ZM1273.7 181.947H1245.73V163.302H1273.7V181.947Z" stroke="white" stroke-width="3"/>
<path d="M1350.71 132.753H1317.56V256.044H1350.71V132.753Z" stroke="white" stroke-width="3"/>
<path d="M1300.13 46.7668H1247.22V30.7127H1304.87V0.157227H1213.49V123.417L1247.22 123.462V77.324H1300.13V46.7668Z" stroke="white" stroke-width="3"/>
<path d="M1404.2 46.7668H1351.29V30.7127H1408.94V0.157227H1317.56V123.417L1351.29 123.462V77.324H1404.2V46.7668Z" stroke="white" stroke-width="3"/>
</g>
<g clip-path="url(#clip4_818_5372)">
<path d="M18.6458 394.73H75.6153C80.5597 394.73 85.3013 392.765 88.7973 389.269C92.2933 385.773 94.2572 381.031 94.2571 376.086V290.143C94.2574 285.191 92.2904 280.441 88.7888 276.939C85.2873 273.437 80.538 271.47 75.5857 271.469H51.8291L0.00146486 323.297V376.086C0.00137502 378.534 0.48356 380.959 1.42049 383.221C2.35742 385.483 3.73074 387.538 5.46204 389.27C7.19334 391.001 9.24871 392.374 11.5108 393.311C13.7729 394.248 16.1974 394.73 18.6458 394.73V394.73ZM33.1474 302.025H61.2213L61.1137 364.172H33.1474V302.025Z" stroke="white" stroke-width="3"/>
<path d="M75.6025 404.142H18.6497C16.2005 404.141 13.7753 404.624 11.5126 405.561C9.24988 406.498 7.19391 407.872 5.46211 409.604C3.7303 411.336 2.35658 413.391 1.41939 415.654C0.482199 417.917 -0.000112287 420.342 1.96084e-08 422.791L1.96084e-08 508.783C-0.000112285 511.232 0.482197 513.657 1.41939 515.92C2.35658 518.183 3.7303 520.239 5.4621 521.971C7.1939 523.702 9.24986 525.076 11.5126 526.013C13.7753 526.951 16.2005 527.433 18.6497 527.433H75.6025C78.0553 527.433 80.4841 526.95 82.7502 526.011C85.0163 525.072 87.0753 523.697 88.8097 521.962C90.544 520.228 91.9198 518.169 92.8584 515.903C93.797 513.637 94.2801 511.208 94.2801 508.755V456.032H43.7078V481.416H61.2364V496.869H33.154V434.707H61.2364V445.921H94.2801V422.821C94.2799 417.867 92.3121 413.116 88.8095 409.613C85.3069 406.111 80.5563 404.142 75.6025 404.142V404.142Z" stroke="white" stroke-width="3"/>
<path d="M348.576 475.857V422.791C348.576 420.342 348.093 417.917 347.156 415.654C346.219 413.391 344.845 411.335 343.113 409.604C341.382 407.872 339.325 406.498 337.063 405.561C334.8 404.624 332.375 404.141 329.925 404.142H254.295V527.433H297L348.576 475.857ZM287.34 434.707H315.422V496.869H287.34V434.707Z" stroke="white" stroke-width="3"/>
<path d="M180.772 483.989V479.31C185.717 479.31 190.459 477.345 193.956 473.849C197.452 470.353 199.416 465.611 199.417 460.666V422.858C199.416 417.913 197.452 413.171 193.955 409.675C190.459 406.178 185.717 404.214 180.772 404.214H105.159V527.475H138.303V485.527H154.879L168.344 527.475H204.598L194.428 494.103C193.536 491.177 191.727 488.614 189.269 486.793C186.81 484.972 183.832 483.989 180.772 483.989V483.989ZM166.271 453.416H138.303V434.772H166.271V453.416Z" stroke="white" stroke-width="3"/>
<path d="M243.287 404.223H210.134V527.514H243.287V404.223Z" stroke="white" stroke-width="3"/>
<path d="M192.703 318.236H139.798V302.182H197.447V271.626H106.062V394.886L139.798 394.931V348.793H192.703V318.236Z" stroke="white" stroke-width="3"/>
<path d="M296.775 318.236H243.87V302.182H301.52V271.626H210.134V394.886L243.87 394.931V348.793H296.775V318.236Z" stroke="white" stroke-width="3"/>
</g>
<g clip-path="url(#clip5_818_5372)">
<path d="M387.787 394.73H444.757C449.701 394.73 454.443 392.765 457.939 389.269C461.435 385.773 463.399 381.031 463.399 376.086V290.143C463.399 285.191 461.432 280.441 457.93 276.939C454.429 273.437 449.68 271.47 444.727 271.469H420.971L369.143 323.297V376.086C369.143 378.534 369.625 380.959 370.562 383.221C371.499 385.483 372.872 387.538 374.604 389.27C376.335 391.001 378.39 392.374 380.652 393.311C382.914 394.248 385.339 394.73 387.787 394.73V394.73ZM402.289 302.025H430.363L430.255 364.172H402.289V302.025Z" stroke="white" stroke-width="1.73201"/>
<path d="M444.744 404.142H387.791C385.342 404.141 382.917 404.624 380.654 405.561C378.391 406.498 376.336 407.872 374.604 409.604C372.872 411.336 371.498 413.391 370.561 415.654C369.624 417.917 369.141 420.342 369.142 422.791V508.783C369.141 511.232 369.624 513.657 370.561 515.92C371.498 518.183 372.872 520.239 374.604 521.971C376.335 523.702 378.391 525.076 380.654 526.013C382.917 526.951 385.342 527.433 387.791 527.433H444.744C447.197 527.433 449.626 526.95 451.892 526.011C454.158 525.072 456.217 523.697 457.951 521.962C459.686 520.228 461.061 518.169 462 515.903C462.939 513.637 463.422 511.208 463.422 508.755V456.032H412.849V481.416H430.378V496.869H402.296V434.707H430.378V445.921H463.422V422.821C463.422 417.867 461.454 413.116 457.951 409.613C454.448 406.111 449.698 404.142 444.744 404.142V404.142Z" stroke="white" stroke-width="1.73201"/>
<path d="M717.717 475.857V422.791C717.717 420.342 717.235 417.917 716.298 415.654C715.361 413.391 713.987 411.335 712.255 409.604C710.523 407.872 708.467 406.498 706.204 405.561C703.941 404.624 701.516 404.141 699.067 404.142H623.437V527.433H666.142L717.717 475.857ZM656.482 434.707H684.564V496.869H656.482V434.707Z" stroke="white" stroke-width="1.73201"/>
<path d="M549.914 483.989V479.31C554.859 479.31 559.601 477.345 563.097 473.849C566.594 470.353 568.558 465.611 568.558 460.666V422.858C568.558 417.913 566.594 413.171 563.097 409.675C559.601 406.178 554.859 404.214 549.914 404.214H474.3V527.475H507.445V485.527H524.021L537.486 527.475H573.74L563.57 494.103C562.677 491.177 560.869 488.614 558.41 486.793C555.952 484.972 552.973 483.989 549.914 483.989V483.989ZM535.413 453.416H507.444V434.772H535.413V453.416Z" stroke="white" stroke-width="1.73201"/>
<path d="M612.429 404.223H579.275V527.514H612.429V404.223Z" stroke="white" stroke-width="1.73201"/>
<path d="M561.844 318.236H508.939V302.182H566.589V271.626H475.203V394.886L508.939 394.931V348.793H561.844V318.236Z" stroke="white" stroke-width="1.73201"/>
<path d="M665.917 318.236H613.012V302.182H670.661V271.626H579.275V394.886L613.012 394.931V348.793H665.917V318.236Z" stroke="white" stroke-width="1.73201"/>
</g>
<g clip-path="url(#clip6_818_5372)">
<path d="M756.929 394.73H813.898C818.843 394.73 823.585 392.765 827.081 389.269C830.576 385.773 832.54 381.031 832.54 376.086V290.143C832.541 285.191 830.574 280.441 827.072 276.939C823.57 273.437 818.821 271.47 813.869 271.469H790.112L738.285 323.297V376.086C738.285 378.534 738.767 380.959 739.704 383.221C740.641 385.483 742.014 387.538 743.745 389.27C745.477 391.001 747.532 392.374 749.794 393.311C752.056 394.248 754.481 394.73 756.929 394.73V394.73ZM771.431 302.025H799.504L799.397 364.172H771.431V302.025Z" stroke="white" stroke-width="3"/>
<path d="M813.885 404.142H756.933C754.483 404.141 752.058 404.624 749.796 405.561C747.533 406.498 745.477 407.872 743.745 409.604C742.013 411.336 740.64 413.391 739.702 415.654C738.765 417.917 738.283 420.342 738.283 422.791V508.783C738.283 511.232 738.765 513.657 739.702 515.92C740.64 518.183 742.013 520.239 743.745 521.971C745.477 523.702 747.533 525.076 749.796 526.013C752.058 526.951 754.483 527.433 756.933 527.433H813.885C816.338 527.433 818.767 526.95 821.033 526.011C823.299 525.072 825.358 523.697 827.093 521.962C828.827 520.228 830.203 518.169 831.141 515.903C832.08 513.637 832.563 511.208 832.563 508.755V456.032H781.991V481.416H799.519V496.869H771.437V434.707H799.519V445.921H832.563V422.821C832.563 417.867 830.595 413.116 827.092 409.613C823.59 406.111 818.839 404.142 813.885 404.142V404.142Z" stroke="white" stroke-width="3"/>
<path d="M1086.86 475.857V422.791C1086.86 420.342 1086.38 417.917 1085.44 415.654C1084.5 413.391 1083.13 411.335 1081.4 409.604C1079.66 407.872 1077.61 406.498 1075.35 405.561C1073.08 404.624 1070.66 404.141 1068.21 404.142H992.578V527.433H1035.28L1086.86 475.857ZM1025.62 434.707H1053.71V496.869H1025.62V434.707Z" stroke="white" stroke-width="3"/>
<path d="M919.055 483.989V479.31C924 479.31 928.742 477.345 932.238 473.849C935.735 470.353 937.699 465.611 937.7 460.666V422.858C937.699 417.913 935.735 413.171 932.238 409.675C928.742 406.178 924 404.214 919.055 404.214H843.442V527.475H876.586V485.527H893.162L906.627 527.475H942.881L932.711 494.103C931.819 491.177 930.01 488.614 927.551 486.793C925.093 484.972 922.115 483.989 919.055 483.989V483.989ZM904.554 453.416H876.586V434.772H904.554V453.416Z" stroke="white" stroke-width="3"/>
<path d="M981.57 404.223H948.417V527.514H981.57V404.223Z" stroke="white" stroke-width="3"/>
<path d="M930.986 318.236H878.081V302.182H935.73V271.626H844.344V394.886L878.081 394.931V348.793H930.986V318.236Z" stroke="white" stroke-width="3"/>
<path d="M1035.06 318.236H982.153V302.182H1039.8V271.626H948.417V394.886L982.153 394.931V348.793H1035.06V318.236Z" stroke="white" stroke-width="3"/>
</g>
<g clip-path="url(#clip7_818_5372)">
<path d="M1126.07 394.73H1183.04C1187.98 394.73 1192.73 392.765 1196.22 389.269C1199.72 385.773 1201.68 381.031 1201.68 376.086V290.143C1201.68 285.191 1199.71 280.441 1196.21 276.939C1192.71 273.437 1187.96 271.47 1183.01 271.469H1159.25L1107.43 323.297V376.086C1107.43 378.534 1107.91 380.959 1108.85 383.221C1109.78 385.483 1111.16 387.538 1112.89 389.27C1114.62 391.001 1116.67 392.374 1118.94 393.311C1121.2 394.248 1123.62 394.73 1126.07 394.73V394.73ZM1140.57 302.025H1168.65L1168.54 364.172H1140.57V302.025Z" stroke="white" stroke-width="3"/>
<path d="M1183.03 404.142H1126.07C1123.62 404.141 1121.2 404.624 1118.94 405.561C1116.67 406.498 1114.62 407.872 1112.89 409.604C1111.15 411.336 1109.78 413.391 1108.84 415.654C1107.91 417.917 1107.42 420.342 1107.42 422.791V508.783C1107.42 511.232 1107.91 513.657 1108.84 515.92C1109.78 518.183 1111.15 520.239 1112.89 521.971C1114.62 523.702 1116.67 525.076 1118.94 526.013C1121.2 526.951 1123.62 527.433 1126.07 527.433H1183.03C1185.48 527.433 1187.91 526.95 1190.17 526.011C1192.44 525.072 1194.5 523.697 1196.23 521.962C1197.97 520.228 1199.34 518.169 1200.28 515.903C1201.22 513.637 1201.7 511.208 1201.7 508.755V456.032H1151.13V481.416H1168.66V496.869H1140.58V434.707H1168.66V445.921H1201.7V422.821C1201.7 417.867 1199.74 413.116 1196.23 409.613C1192.73 406.111 1187.98 404.142 1183.03 404.142V404.142Z" stroke="white" stroke-width="3"/>
<path d="M1456 475.857V422.791C1456 420.342 1455.52 417.917 1454.58 415.654C1453.64 413.391 1452.27 411.335 1450.54 409.604C1448.81 407.872 1446.75 406.498 1444.49 405.561C1442.22 404.624 1439.8 404.141 1437.35 404.142H1361.72V527.433H1404.42L1456 475.857ZM1394.76 434.707H1422.85V496.869H1394.76V434.707Z" stroke="white" stroke-width="3"/>
<path d="M1288.2 483.989V479.31C1293.14 479.31 1297.88 477.345 1301.38 473.849C1304.88 470.353 1306.84 465.611 1306.84 460.666V422.858C1306.84 417.913 1304.88 413.171 1301.38 409.675C1297.88 406.178 1293.14 404.214 1288.2 404.214H1212.58V527.475H1245.73V485.527H1262.3L1275.77 527.475H1312.02L1301.85 494.103C1300.96 491.177 1299.15 488.614 1296.69 486.793C1294.23 484.972 1291.26 483.989 1288.2 483.989V483.989ZM1273.7 453.416H1245.73V434.772H1273.7V453.416Z" stroke="white" stroke-width="3"/>
<path d="M1350.71 404.223H1317.56V527.514H1350.71V404.223Z" stroke="white" stroke-width="3"/>
<path d="M1300.13 318.236H1247.22V302.182H1304.87V271.626H1213.49V394.886L1247.22 394.931V348.793H1300.13V318.236Z" stroke="white" stroke-width="3"/>
<path d="M1404.2 318.236H1351.29V302.182H1408.94V271.626H1317.56V394.886L1351.29 394.931V348.793H1404.2V318.236Z" stroke="white" stroke-width="3"/>
</g>
<g clip-path="url(#clip8_818_5372)">
<path d="M18.6458 666.2H75.6153C80.5597 666.199 85.3013 664.235 88.7973 660.738C92.2933 657.242 94.2572 652.5 94.2571 647.556V561.612C94.2574 556.66 92.2904 551.911 88.7888 548.409C85.2873 544.907 80.538 542.939 75.5857 542.938H51.8291L0.00146486 594.766V647.555C0.00137502 650.003 0.48356 652.428 1.42049 654.69C2.35742 656.952 3.73074 659.007 5.46204 660.739C7.19334 662.47 9.24871 663.843 11.5108 664.78C13.7729 665.717 16.1974 666.2 18.6458 666.2V666.2ZM33.1474 573.494H61.2213L61.1137 635.642H33.1474V573.494Z" stroke="white" stroke-width="3"/>
<path d="M75.6025 675.611H18.6497C16.2005 675.611 13.7753 676.093 11.5126 677.03C9.24988 677.967 7.19391 679.341 5.46211 681.073C3.7303 682.805 2.35658 684.861 1.41939 687.123C0.482199 689.386 -0.000112287 691.811 1.96084e-08 694.26L1.96084e-08 780.252C-0.000112285 782.701 0.482197 785.126 1.41939 787.389C2.35658 789.652 3.7303 791.708 5.4621 793.44C7.1939 795.172 9.24986 796.545 11.5126 797.483C13.7753 798.42 16.2005 798.902 18.6497 798.902H75.6025C78.0553 798.902 80.4841 798.419 82.7502 797.48C85.0163 796.542 87.0753 795.166 88.8097 793.431C90.544 791.697 91.9198 789.638 92.8584 787.372C93.797 785.106 94.2801 782.677 94.2801 780.224V727.501H43.7078V752.885H61.2364V768.338H33.154V706.176H61.2364V717.391H94.2801V694.29C94.2799 689.337 92.3121 684.586 88.8095 681.083C85.3069 677.58 80.5563 675.611 75.6025 675.611V675.611Z" stroke="white" stroke-width="3"/>
<path d="M348.576 747.326V694.26C348.576 691.811 348.093 689.386 347.156 687.123C346.219 684.861 344.845 682.805 343.113 681.073C341.382 679.341 339.325 677.967 337.063 677.03C334.8 676.093 332.375 675.611 329.925 675.611H254.295V798.902H297L348.576 747.326ZM287.34 706.176H315.422V768.338H287.34V706.176Z" stroke="white" stroke-width="3"/>
<path d="M180.772 755.458V750.779C185.717 750.779 190.459 748.815 193.956 745.318C197.452 741.822 199.416 737.08 199.417 732.135V694.327C199.416 689.382 197.452 684.64 193.955 681.144C190.459 677.648 185.717 675.683 180.772 675.683H105.159V798.944H138.303V756.996H154.879L168.344 798.944H204.598L194.428 765.572C193.536 762.646 191.727 760.083 189.269 758.262C186.81 756.442 183.832 755.458 180.772 755.458V755.458ZM166.271 724.885H138.303V706.241H166.271V724.885Z" stroke="white" stroke-width="3"/>
<path d="M243.287 675.692H210.134V798.983H243.287V675.692Z" stroke="white" stroke-width="3"/>
<path d="M192.703 589.705H139.798V573.651H197.447V543.096H106.062V666.356L139.798 666.4V620.262H192.703V589.705Z" stroke="white" stroke-width="3"/>
<path d="M296.775 589.705H243.87V573.651H301.52V543.096H210.134V666.356L243.87 666.4V620.262H296.775V589.705Z" stroke="white" stroke-width="3"/>
</g>
<g clip-path="url(#clip9_818_5372)">
<path d="M387.787 666.2H444.757C449.701 666.199 454.443 664.235 457.939 660.738C461.435 657.242 463.399 652.5 463.399 647.556V561.612C463.399 556.66 461.432 551.911 457.93 548.409C454.429 544.907 449.68 542.939 444.727 542.938H420.971L369.143 594.766V647.555C369.143 650.003 369.625 652.428 370.562 654.69C371.499 656.952 372.872 659.007 374.604 660.739C376.335 662.47 378.39 663.843 380.652 664.78C382.914 665.717 385.339 666.2 387.787 666.2V666.2ZM402.289 573.494H430.363L430.255 635.642H402.289V573.494Z" stroke="white" stroke-width="1.73201"/>
<path d="M444.744 675.611H387.791C385.342 675.611 382.917 676.093 380.654 677.03C378.391 677.967 376.336 679.341 374.604 681.073C372.872 682.805 371.498 684.861 370.561 687.123C369.624 689.386 369.141 691.811 369.142 694.26V780.252C369.141 782.701 369.624 785.126 370.561 787.389C371.498 789.652 372.872 791.708 374.604 793.44C376.335 795.172 378.391 796.545 380.654 797.483C382.917 798.42 385.342 798.902 387.791 798.902H444.744C447.197 798.902 449.626 798.419 451.892 797.48C454.158 796.542 456.217 795.166 457.951 793.431C459.686 791.697 461.061 789.638 462 787.372C462.939 785.106 463.422 782.677 463.422 780.224V727.501H412.849V752.885H430.378V768.338H402.296V706.176H430.378V717.391H463.422V694.29C463.422 689.337 461.454 684.586 457.951 681.083C454.448 677.58 449.698 675.611 444.744 675.611V675.611Z" stroke="white" stroke-width="1.73201"/>
<path d="M717.717 747.326V694.26C717.717 691.811 717.235 689.386 716.298 687.123C715.361 684.861 713.987 682.805 712.255 681.073C710.523 679.341 708.467 677.967 706.204 677.03C703.941 676.093 701.516 675.611 699.067 675.611H623.437V798.902H666.142L717.717 747.326ZM656.482 706.176H684.564V768.338H656.482V706.176Z" stroke="white" stroke-width="1.73201"/>
<path d="M549.914 755.458V750.779C554.859 750.779 559.601 748.815 563.097 745.318C566.594 741.822 568.558 737.08 568.558 732.135V694.327C568.558 689.382 566.594 684.64 563.097 681.144C559.601 677.648 554.859 675.683 549.914 675.683H474.3V798.944H507.445V756.996H524.021L537.486 798.944H573.74L563.57 765.572C562.677 762.646 560.869 760.083 558.41 758.262C555.952 756.442 552.973 755.458 549.914 755.458V755.458ZM535.413 724.885H507.444V706.241H535.413V724.885Z" stroke="white" stroke-width="1.73201"/>
<path d="M612.429 675.692H579.275V798.983H612.429V675.692Z" stroke="white" stroke-width="1.73201"/>
<path d="M561.844 589.705H508.939V573.651H566.589V543.096H475.203V666.356L508.939 666.4V620.262H561.844V589.705Z" stroke="white" stroke-width="1.73201"/>
<path d="M665.917 589.705H613.012V573.651H670.661V543.096H579.275V666.356L613.012 666.4V620.262H665.917V589.705Z" stroke="white" stroke-width="1.73201"/>
</g>
<g clip-path="url(#clip10_818_5372)">
<path d="M756.929 666.2H813.898C818.843 666.199 823.585 664.235 827.081 660.738C830.576 657.242 832.54 652.5 832.54 647.556V561.612C832.541 556.66 830.574 551.911 827.072 548.409C823.57 544.907 818.821 542.939 813.869 542.938H790.112L738.285 594.766V647.555C738.285 650.003 738.767 652.428 739.704 654.69C740.641 656.952 742.014 659.007 743.745 660.739C745.477 662.47 747.532 663.843 749.794 664.78C752.056 665.717 754.481 666.2 756.929 666.2V666.2ZM771.431 573.494H799.504L799.397 635.642H771.431V573.494Z" stroke="white" stroke-width="3"/>
<path d="M813.885 675.611H756.933C754.483 675.611 752.058 676.093 749.796 677.03C747.533 677.967 745.477 679.341 743.745 681.073C742.013 682.805 740.64 684.861 739.702 687.123C738.765 689.386 738.283 691.811 738.283 694.26V780.252C738.283 782.701 738.765 785.126 739.702 787.389C740.64 789.652 742.013 791.708 743.745 793.44C745.477 795.172 747.533 796.545 749.796 797.483C752.058 798.42 754.483 798.902 756.933 798.902H813.885C816.338 798.902 818.767 798.419 821.033 797.48C823.299 796.542 825.358 795.166 827.093 793.431C828.827 791.697 830.203 789.638 831.141 787.372C832.08 785.106 832.563 782.677 832.563 780.224V727.501H781.991V752.885H799.519V768.338H771.437V706.176H799.519V717.391H832.563V694.29C832.563 689.337 830.595 684.586 827.092 681.083C823.59 677.58 818.839 675.611 813.885 675.611V675.611Z" stroke="white" stroke-width="3"/>
<path d="M1086.86 747.326V694.26C1086.86 691.811 1086.38 689.386 1085.44 687.123C1084.5 684.861 1083.13 682.805 1081.4 681.073C1079.66 679.341 1077.61 677.967 1075.35 677.03C1073.08 676.093 1070.66 675.611 1068.21 675.611H992.578V798.902H1035.28L1086.86 747.326ZM1025.62 706.176H1053.71V768.338H1025.62V706.176Z" stroke="white" stroke-width="3"/>
<path d="M919.055 755.458V750.779C924 750.779 928.742 748.815 932.238 745.318C935.735 741.822 937.699 737.08 937.7 732.135V694.327C937.699 689.382 935.735 684.64 932.238 681.144C928.742 677.648 924 675.683 919.055 675.683H843.442V798.944H876.586V756.996H893.162L906.627 798.944H942.881L932.711 765.572C931.819 762.646 930.01 760.083 927.551 758.262C925.093 756.442 922.115 755.458 919.055 755.458V755.458ZM904.554 724.885H876.586V706.241H904.554V724.885Z" stroke="white" stroke-width="3"/>
<path d="M981.57 675.692H948.417V798.983H981.57V675.692Z" stroke="white" stroke-width="3"/>
<path d="M930.986 589.705H878.081V573.651H935.73V543.096H844.344V666.356L878.081 666.4V620.262H930.986V589.705Z" stroke="white" stroke-width="3"/>
<path d="M1035.06 589.705H982.153V573.651H1039.8V543.096H948.417V666.356L982.153 666.4V620.262H1035.06V589.705Z" stroke="white" stroke-width="3"/>
</g>
<g clip-path="url(#clip11_818_5372)">
<path d="M1126.07 666.2H1183.04C1187.98 666.199 1192.73 664.235 1196.22 660.738C1199.72 657.242 1201.68 652.5 1201.68 647.556V561.612C1201.68 556.66 1199.71 551.911 1196.21 548.409C1192.71 544.907 1187.96 542.939 1183.01 542.938H1159.25L1107.43 594.766V647.555C1107.43 650.003 1107.91 652.428 1108.85 654.69C1109.78 656.952 1111.16 659.007 1112.89 660.739C1114.62 662.47 1116.67 663.843 1118.94 664.78C1121.2 665.717 1123.62 666.2 1126.07 666.2V666.2ZM1140.57 573.494H1168.65L1168.54 635.642H1140.57V573.494Z" stroke="white" stroke-width="3"/>
<path d="M1183.03 675.611H1126.07C1123.62 675.611 1121.2 676.093 1118.94 677.03C1116.67 677.967 1114.62 679.341 1112.89 681.073C1111.15 682.805 1109.78 684.861 1108.84 687.123C1107.91 689.386 1107.42 691.811 1107.42 694.26V780.252C1107.42 782.701 1107.91 785.126 1108.84 787.389C1109.78 789.652 1111.15 791.708 1112.89 793.44C1114.62 795.172 1116.67 796.545 1118.94 797.483C1121.2 798.42 1123.62 798.902 1126.07 798.902H1183.03C1185.48 798.902 1187.91 798.419 1190.17 797.48C1192.44 796.542 1194.5 795.166 1196.23 793.431C1197.97 791.697 1199.34 789.638 1200.28 787.372C1201.22 785.106 1201.7 782.677 1201.7 780.224V727.501H1151.13V752.885H1168.66V768.338H1140.58V706.176H1168.66V717.391H1201.7V694.29C1201.7 689.337 1199.74 684.586 1196.23 681.083C1192.73 677.58 1187.98 675.611 1183.03 675.611V675.611Z" stroke="white" stroke-width="3"/>
<path d="M1456 747.326V694.26C1456 691.811 1455.52 689.386 1454.58 687.123C1453.64 684.861 1452.27 682.805 1450.54 681.073C1448.81 679.341 1446.75 677.967 1444.49 677.03C1442.22 676.093 1439.8 675.611 1437.35 675.611H1361.72V798.902H1404.42L1456 747.326ZM1394.76 706.176H1422.85V768.338H1394.76V706.176Z" stroke="white" stroke-width="3"/>
<path d="M1288.2 755.458V750.779C1293.14 750.779 1297.88 748.815 1301.38 745.318C1304.88 741.822 1306.84 737.08 1306.84 732.135V694.327C1306.84 689.382 1304.88 684.64 1301.38 681.144C1297.88 677.648 1293.14 675.683 1288.2 675.683H1212.58V798.944H1245.73V756.996H1262.3L1275.77 798.944H1312.02L1301.85 765.572C1300.96 762.646 1299.15 760.083 1296.69 758.262C1294.23 756.442 1291.26 755.458 1288.2 755.458V755.458ZM1273.7 724.885H1245.73V706.241H1273.7V724.885Z" stroke="white" stroke-width="3"/>
<path d="M1350.71 675.692H1317.56V798.983H1350.71V675.692Z" stroke="white" stroke-width="3"/>
<path d="M1300.13 589.705H1247.22V573.651H1304.87V543.096H1213.49V666.356L1247.22 666.4V620.262H1300.13V589.705Z" stroke="white" stroke-width="3"/>
<path d="M1404.2 589.705H1351.29V573.651H1408.94V543.096H1317.56V666.356L1351.29 666.4V620.262H1404.2V589.705Z" stroke="white" stroke-width="3"/>
</g>
<g clip-path="url(#clip12_818_5372)">
<path d="M18.6458 937.669H75.6153C80.5597 937.669 85.3013 935.704 88.7973 932.208C92.2933 928.712 94.2572 923.97 94.2571 919.025V833.082C94.2574 828.13 92.2904 823.38 88.7888 819.878C85.2873 816.376 80.538 814.409 75.5857 814.408H51.8291L0.00146486 866.236V919.025C0.00137502 921.473 0.48356 923.898 1.42049 926.16C2.35742 928.422 3.73074 930.477 5.46204 932.208C7.19334 933.94 9.24871 935.313 11.5108 936.25C13.7729 937.187 16.1974 937.669 18.6458 937.669V937.669ZM33.1474 844.964H61.2213L61.1137 907.111H33.1474V844.964Z" stroke="white" stroke-width="3"/>
<path d="M75.6025 947.081H18.6497C16.2005 947.08 13.7753 947.563 11.5126 948.5C9.24988 949.437 7.19391 950.811 5.46211 952.543C3.7303 954.274 2.35658 956.33 1.41939 958.593C0.482199 960.856 -0.000112287 963.281 1.96084e-08 965.73L1.96084e-08 1051.72C-0.000112285 1054.17 0.482197 1056.6 1.41939 1058.86C2.35658 1061.12 3.7303 1063.18 5.4621 1064.91C7.1939 1066.64 9.24986 1068.02 11.5126 1068.95C13.7753 1069.89 16.2005 1070.37 18.6497 1070.37H75.6025C78.0553 1070.37 80.4841 1069.89 82.7502 1068.95C85.0163 1068.01 87.0753 1066.64 88.8097 1064.9C90.544 1063.17 91.9198 1061.11 92.8584 1058.84C93.797 1056.58 94.2801 1054.15 94.2801 1051.69V998.971H43.7078V1024.35H61.2364V1039.81H33.154V977.646H61.2364V988.86H94.2801V965.76C94.2799 960.806 92.3121 956.055 88.8095 952.552C85.3069 949.049 80.5563 947.081 75.6025 947.081V947.081Z" stroke="white" stroke-width="3"/>
<path d="M348.576 1018.8V965.73C348.576 963.281 348.093 960.856 347.156 958.593C346.219 956.33 344.845 954.274 343.113 952.542C341.382 950.811 339.325 949.437 337.063 948.5C334.8 947.563 332.375 947.08 329.925 947.081H254.295V1070.37H297L348.576 1018.8ZM287.34 977.646H315.422V1039.81H287.34V977.646Z" stroke="white" stroke-width="3"/>
<path d="M180.772 1026.93V1022.25C185.717 1022.25 190.459 1020.28 193.956 1016.79C197.452 1013.29 199.416 1008.55 199.417 1003.6V965.797C199.416 960.852 197.452 956.11 193.955 952.614C190.459 949.117 185.717 947.153 180.772 947.153H105.159V1070.41H138.303V1028.47H154.879L168.344 1070.41H204.598L194.428 1037.04C193.536 1034.12 191.727 1031.55 189.269 1029.73C186.81 1027.91 183.832 1026.93 180.772 1026.93V1026.93ZM166.271 996.355H138.303V977.711H166.271V996.355Z" stroke="white" stroke-width="3"/>
<path d="M243.287 947.162H210.134V1070.45H243.287V947.162Z" stroke="white" stroke-width="3"/>
<path d="M192.703 861.175H139.798V845.121H197.447V814.565H106.062V937.825L139.798 937.87V891.732H192.703V861.175Z" stroke="white" stroke-width="3"/>
<path d="M296.775 861.175H243.87V845.121H301.52V814.565H210.134V937.825L243.87 937.87V891.732H296.775V861.175Z" stroke="white" stroke-width="3"/>
</g>
<g clip-path="url(#clip13_818_5372)">
<path d="M387.787 937.669H444.757C449.701 937.669 454.443 935.704 457.939 932.208C461.435 928.712 463.399 923.97 463.399 919.025V833.082C463.399 828.13 461.432 823.38 457.93 819.878C454.429 816.376 449.68 814.409 444.727 814.408H420.971L369.143 866.236V919.025C369.143 921.473 369.625 923.898 370.562 926.16C371.499 928.422 372.872 930.477 374.604 932.208C376.335 933.94 378.39 935.313 380.652 936.25C382.914 937.187 385.339 937.669 387.787 937.669V937.669ZM402.289 844.964H430.363L430.255 907.111H402.289V844.964Z" stroke="white" stroke-width="1.73201"/>
<path d="M444.744 947.081H387.791C385.342 947.08 382.917 947.563 380.654 948.5C378.391 949.437 376.336 950.811 374.604 952.543C372.872 954.274 371.498 956.33 370.561 958.593C369.624 960.856 369.141 963.281 369.142 965.73V1051.72C369.141 1054.17 369.624 1056.6 370.561 1058.86C371.498 1061.12 372.872 1063.18 374.604 1064.91C376.335 1066.64 378.391 1068.02 380.654 1068.95C382.917 1069.89 385.342 1070.37 387.791 1070.37H444.744C447.197 1070.37 449.626 1069.89 451.892 1068.95C454.158 1068.01 456.217 1066.64 457.951 1064.9C459.686 1063.17 461.061 1061.11 462 1058.84C462.939 1056.58 463.422 1054.15 463.422 1051.69V998.971H412.849V1024.35H430.378V1039.81H402.296V977.646H430.378V988.86H463.422V965.76C463.422 960.806 461.454 956.055 457.951 952.552C454.448 949.049 449.698 947.081 444.744 947.081V947.081Z" stroke="white" stroke-width="1.73201"/>
<path d="M717.717 1018.8V965.73C717.717 963.281 717.235 960.856 716.298 958.593C715.361 956.33 713.987 954.274 712.255 952.542C710.523 950.811 708.467 949.437 706.204 948.5C703.941 947.563 701.516 947.08 699.067 947.081H623.437V1070.37H666.142L717.717 1018.8ZM656.482 977.646H684.564V1039.81H656.482V977.646Z" stroke="white" stroke-width="1.73201"/>
<path d="M549.914 1026.93V1022.25C554.859 1022.25 559.601 1020.28 563.097 1016.79C566.594 1013.29 568.558 1008.55 568.558 1003.6V965.797C568.558 960.852 566.594 956.11 563.097 952.614C559.601 949.117 554.859 947.153 549.914 947.153H474.3V1070.41H507.445V1028.47H524.021L537.486 1070.41H573.74L563.57 1037.04C562.677 1034.12 560.869 1031.55 558.41 1029.73C555.952 1027.91 552.973 1026.93 549.914 1026.93V1026.93ZM535.413 996.355H507.444V977.711H535.413V996.355Z" stroke="white" stroke-width="1.73201"/>
<path d="M612.429 947.162H579.275V1070.45H612.429V947.162Z" stroke="white" stroke-width="1.73201"/>
<path d="M561.844 861.175H508.939V845.121H566.589V814.565H475.203V937.825L508.939 937.87V891.732H561.844V861.175Z" stroke="white" stroke-width="1.73201"/>
<path d="M665.917 861.175H613.012V845.121H670.661V814.565H579.275V937.825L613.012 937.87V891.732H665.917V861.175Z" stroke="white" stroke-width="1.73201"/>
</g>
<g clip-path="url(#clip14_818_5372)">
<path d="M756.929 937.669H813.898C818.843 937.669 823.585 935.704 827.081 932.208C830.576 928.712 832.54 923.97 832.54 919.025V833.082C832.541 828.13 830.574 823.38 827.072 819.878C823.57 816.376 818.821 814.409 813.869 814.408H790.112L738.285 866.236V919.025C738.285 921.473 738.767 923.898 739.704 926.16C740.641 928.422 742.014 930.477 743.745 932.208C745.477 933.94 747.532 935.313 749.794 936.25C752.056 937.187 754.481 937.669 756.929 937.669V937.669ZM771.431 844.964H799.504L799.397 907.111H771.431V844.964Z" stroke="white" stroke-width="3"/>
<path d="M813.885 947.081H756.933C754.483 947.08 752.058 947.563 749.796 948.5C747.533 949.437 745.477 950.811 743.745 952.543C742.013 954.274 740.64 956.33 739.702 958.593C738.765 960.856 738.283 963.281 738.283 965.73V1051.72C738.283 1054.17 738.765 1056.6 739.702 1058.86C740.64 1061.12 742.013 1063.18 743.745 1064.91C745.477 1066.64 747.533 1068.02 749.796 1068.95C752.058 1069.89 754.483 1070.37 756.933 1070.37H813.885C816.338 1070.37 818.767 1069.89 821.033 1068.95C823.299 1068.01 825.358 1066.64 827.093 1064.9C828.827 1063.17 830.203 1061.11 831.141 1058.84C832.08 1056.58 832.563 1054.15 832.563 1051.69V998.971H781.991V1024.35H799.519V1039.81H771.437V977.646H799.519V988.86H832.563V965.76C832.563 960.806 830.595 956.055 827.092 952.552C823.59 949.049 818.839 947.081 813.885 947.081V947.081Z" stroke="white" stroke-width="3"/>
<path d="M1086.86 1018.8V965.73C1086.86 963.281 1086.38 960.856 1085.44 958.593C1084.5 956.33 1083.13 954.274 1081.4 952.542C1079.66 950.811 1077.61 949.437 1075.35 948.5C1073.08 947.563 1070.66 947.08 1068.21 947.081H992.578V1070.37H1035.28L1086.86 1018.8ZM1025.62 977.646H1053.71V1039.81H1025.62V977.646Z" stroke="white" stroke-width="3"/>
<path d="M919.055 1026.93V1022.25C924 1022.25 928.742 1020.28 932.238 1016.79C935.735 1013.29 937.699 1008.55 937.7 1003.6V965.797C937.699 960.852 935.735 956.11 932.238 952.614C928.742 949.117 924 947.153 919.055 947.153H843.442V1070.41H876.586V1028.47H893.162L906.627 1070.41H942.881L932.711 1037.04C931.819 1034.12 930.01 1031.55 927.551 1029.73C925.093 1027.91 922.115 1026.93 919.055 1026.93V1026.93ZM904.554 996.355H876.586V977.711H904.554V996.355Z" stroke="white" stroke-width="3"/>
<path d="M981.57 947.162H948.417V1070.45H981.57V947.162Z" stroke="white" stroke-width="3"/>
<path d="M930.986 861.175H878.081V845.121H935.73V814.565H844.344V937.825L878.081 937.87V891.732H930.986V861.175Z" stroke="white" stroke-width="3"/>
<path d="M1035.06 861.175H982.153V845.121H1039.8V814.565H948.417V937.825L982.153 937.87V891.732H1035.06V861.175Z" stroke="white" stroke-width="3"/>
</g>
<g clip-path="url(#clip15_818_5372)">
<path d="M1126.07 937.669H1183.04C1187.98 937.669 1192.73 935.704 1196.22 932.208C1199.72 928.712 1201.68 923.97 1201.68 919.025V833.082C1201.68 828.13 1199.71 823.38 1196.21 819.878C1192.71 816.376 1187.96 814.409 1183.01 814.408H1159.25L1107.43 866.236V919.025C1107.43 921.473 1107.91 923.898 1108.85 926.16C1109.78 928.422 1111.16 930.477 1112.89 932.208C1114.62 933.94 1116.67 935.313 1118.94 936.25C1121.2 937.187 1123.62 937.669 1126.07 937.669V937.669ZM1140.57 844.964H1168.65L1168.54 907.111H1140.57V844.964Z" stroke="white" stroke-width="3"/>
<path d="M1183.03 947.081H1126.07C1123.62 947.08 1121.2 947.563 1118.94 948.5C1116.67 949.437 1114.62 950.811 1112.89 952.543C1111.15 954.274 1109.78 956.33 1108.84 958.593C1107.91 960.856 1107.42 963.281 1107.42 965.73V1051.72C1107.42 1054.17 1107.91 1056.6 1108.84 1058.86C1109.78 1061.12 1111.15 1063.18 1112.89 1064.91C1114.62 1066.64 1116.67 1068.02 1118.94 1068.95C1121.2 1069.89 1123.62 1070.37 1126.07 1070.37H1183.03C1185.48 1070.37 1187.91 1069.89 1190.17 1068.95C1192.44 1068.01 1194.5 1066.64 1196.23 1064.9C1197.97 1063.17 1199.34 1061.11 1200.28 1058.84C1201.22 1056.58 1201.7 1054.15 1201.7 1051.69V998.971H1151.13V1024.35H1168.66V1039.81H1140.58V977.646H1168.66V988.86H1201.7V965.76C1201.7 960.806 1199.74 956.055 1196.23 952.552C1192.73 949.049 1187.98 947.081 1183.03 947.081V947.081Z" stroke="white" stroke-width="3"/>
<path d="M1456 1018.8V965.73C1456 963.281 1455.52 960.856 1454.58 958.593C1453.64 956.33 1452.27 954.274 1450.54 952.542C1448.81 950.811 1446.75 949.437 1444.49 948.5C1442.22 947.563 1439.8 947.08 1437.35 947.081H1361.72V1070.37H1404.42L1456 1018.8ZM1394.76 977.646H1422.85V1039.81H1394.76V977.646Z" stroke="white" stroke-width="3"/>
<path d="M1288.2 1026.93V1022.25C1293.14 1022.25 1297.88 1020.28 1301.38 1016.79C1304.88 1013.29 1306.84 1008.55 1306.84 1003.6V965.797C1306.84 960.852 1304.88 956.11 1301.38 952.614C1297.88 949.117 1293.14 947.153 1288.2 947.153H1212.58V1070.41H1245.73V1028.47H1262.3L1275.77 1070.41H1312.02L1301.85 1037.04C1300.96 1034.12 1299.15 1031.55 1296.69 1029.73C1294.23 1027.91 1291.26 1026.93 1288.2 1026.93V1026.93ZM1273.7 996.355H1245.73V977.711H1273.7V996.355Z" stroke="white" stroke-width="3"/>
<path d="M1350.71 947.162H1317.56V1070.45H1350.71V947.162Z" stroke="white" stroke-width="3"/>
<path d="M1300.13 861.175H1247.22V845.121H1304.87V814.565H1213.49V937.825L1247.22 937.87V891.732H1300.13V861.175Z" stroke="white" stroke-width="3"/>
<path d="M1404.2 861.175H1351.29V845.121H1408.94V814.565H1317.56V937.825L1351.29 937.87V891.732H1404.2V861.175Z" stroke="white" stroke-width="3"/>
</g>
<g clip-path="url(#clip16_818_5372)">
<path d="M18.6458 1209.14H75.6153C80.5597 1209.14 85.3013 1207.17 88.7973 1203.68C92.2933 1200.18 94.2572 1195.44 94.2571 1190.49V1104.55C94.2574 1099.6 92.2904 1094.85 88.7888 1091.35C85.2873 1087.85 80.538 1085.88 75.5857 1085.88H51.8291L0.00146486 1137.71V1190.49C0.00137502 1192.94 0.48356 1195.37 1.42049 1197.63C2.35742 1199.89 3.73074 1201.95 5.46204 1203.68C7.19334 1205.41 9.24871 1206.78 11.5108 1207.72C13.7729 1208.66 16.1974 1209.14 18.6458 1209.14V1209.14ZM33.1474 1116.43H61.2213L61.1137 1178.58H33.1474V1116.43Z" stroke="white" stroke-width="3"/>
<path d="M75.6025 1218.55H18.6497C16.2005 1218.55 13.7753 1219.03 11.5126 1219.97C9.24988 1220.91 7.19391 1222.28 5.46211 1224.01C3.7303 1225.74 2.35658 1227.8 1.41939 1230.06C0.482199 1232.33 -0.000112287 1234.75 1.96084e-08 1237.2L1.96084e-08 1323.19C-0.000112285 1325.64 0.482197 1328.07 1.41939 1330.33C2.35658 1332.59 3.7303 1334.65 5.4621 1336.38C7.1939 1338.11 9.24986 1339.48 11.5126 1340.42C13.7753 1341.36 16.2005 1341.84 18.6497 1341.84H75.6025C78.0553 1341.84 80.4841 1341.36 82.7502 1340.42C85.0163 1339.48 87.0753 1338.1 88.8097 1336.37C90.544 1334.64 91.9198 1332.58 92.8584 1330.31C93.797 1328.04 94.2801 1325.62 94.2801 1323.16V1270.44H43.7078V1295.82H61.2364V1311.28H33.154V1249.12H61.2364V1260.33H94.2801V1237.23C94.2799 1232.28 92.3121 1227.52 88.8095 1224.02C85.3069 1220.52 80.5563 1218.55 75.6025 1218.55V1218.55Z" stroke="white" stroke-width="3"/>
<path d="M348.576 1290.27V1237.2C348.576 1234.75 348.093 1232.33 347.156 1230.06C346.219 1227.8 344.845 1225.74 343.113 1224.01C341.382 1222.28 339.325 1220.91 337.063 1219.97C334.8 1219.03 332.375 1218.55 329.925 1218.55H254.295V1341.84H297L348.576 1290.27ZM287.34 1249.12H315.422V1311.28H287.34V1249.12Z" stroke="white" stroke-width="3"/>
<path d="M180.772 1298.4V1293.72C185.717 1293.72 190.459 1291.75 193.956 1288.26C197.452 1284.76 199.416 1280.02 199.417 1275.07V1237.27C199.416 1232.32 197.452 1227.58 193.955 1224.08C190.459 1220.59 185.717 1218.62 180.772 1218.62H105.159V1341.88H138.303V1299.93H154.879L168.344 1341.88H204.598L194.428 1308.51C193.536 1305.58 191.727 1303.02 189.269 1301.2C186.81 1299.38 183.832 1298.4 180.772 1298.4V1298.4ZM166.271 1267.82H138.303V1249.18H166.271V1267.82Z" stroke="white" stroke-width="3"/>
<path d="M243.287 1218.63H210.134V1341.92H243.287V1218.63Z" stroke="white" stroke-width="3"/>
<path d="M192.703 1132.64H139.798V1116.59H197.447V1086.03H106.062V1209.29L139.798 1209.34V1163.2H192.703V1132.64Z" stroke="white" stroke-width="3"/>
<path d="M296.775 1132.64H243.87V1116.59H301.52V1086.03H210.134V1209.29L243.87 1209.34V1163.2H296.775V1132.64Z" stroke="white" stroke-width="3"/>
</g>
<g clip-path="url(#clip17_818_5372)">
<path d="M387.787 1209.14H444.757C449.701 1209.14 454.443 1207.17 457.939 1203.68C461.435 1200.18 463.399 1195.44 463.399 1190.49V1104.55C463.399 1099.6 461.432 1094.85 457.93 1091.35C454.429 1087.85 449.68 1085.88 444.727 1085.88H420.971L369.143 1137.71V1190.49C369.143 1192.94 369.625 1195.37 370.562 1197.63C371.499 1199.89 372.872 1201.95 374.604 1203.68C376.335 1205.41 378.39 1206.78 380.652 1207.72C382.914 1208.66 385.339 1209.14 387.787 1209.14V1209.14ZM402.289 1116.43H430.363L430.255 1178.58H402.289V1116.43Z" stroke="white" stroke-width="1.73201"/>
<path d="M444.744 1218.55H387.791C385.342 1218.55 382.917 1219.03 380.654 1219.97C378.391 1220.91 376.336 1222.28 374.604 1224.01C372.872 1225.74 371.498 1227.8 370.561 1230.06C369.624 1232.33 369.141 1234.75 369.142 1237.2V1323.19C369.141 1325.64 369.624 1328.07 370.561 1330.33C371.498 1332.59 372.872 1334.65 374.604 1336.38C376.335 1338.11 378.391 1339.48 380.654 1340.42C382.917 1341.36 385.342 1341.84 387.791 1341.84H444.744C447.197 1341.84 449.626 1341.36 451.892 1340.42C454.158 1339.48 456.217 1338.1 457.951 1336.37C459.686 1334.64 461.061 1332.58 462 1330.31C462.939 1328.04 463.422 1325.62 463.422 1323.16V1270.44H412.849V1295.82H430.378V1311.28H402.296V1249.12H430.378V1260.33H463.422V1237.23C463.422 1232.28 461.454 1227.52 457.951 1224.02C454.448 1220.52 449.698 1218.55 444.744 1218.55V1218.55Z" stroke="white" stroke-width="1.73201"/>
<path d="M717.717 1290.27V1237.2C717.717 1234.75 717.235 1232.33 716.298 1230.06C715.361 1227.8 713.987 1225.74 712.255 1224.01C710.523 1222.28 708.467 1220.91 706.204 1219.97C703.941 1219.03 701.516 1218.55 699.067 1218.55H623.437V1341.84H666.142L717.717 1290.27ZM656.482 1249.12H684.564V1311.28H656.482V1249.12Z" stroke="white" stroke-width="1.73201"/>
<path d="M549.914 1298.4V1293.72C554.859 1293.72 559.601 1291.75 563.097 1288.26C566.594 1284.76 568.558 1280.02 568.558 1275.07V1237.27C568.558 1232.32 566.594 1227.58 563.097 1224.08C559.601 1220.59 554.859 1218.62 549.914 1218.62H474.3V1341.88H507.445V1299.93H524.021L537.486 1341.88H573.74L563.57 1308.51C562.677 1305.58 560.869 1303.02 558.41 1301.2C555.952 1299.38 552.973 1298.4 549.914 1298.4V1298.4ZM535.413 1267.82H507.444V1249.18H535.413V1267.82Z" stroke="white" stroke-width="1.73201"/>
<path d="M612.429 1218.63H579.275V1341.92H612.429V1218.63Z" stroke="white" stroke-width="1.73201"/>
<path d="M561.844 1132.64H508.939V1116.59H566.589V1086.03H475.203V1209.29L508.939 1209.34V1163.2H561.844V1132.64Z" stroke="white" stroke-width="1.73201"/>
<path d="M665.917 1132.64H613.012V1116.59H670.661V1086.03H579.275V1209.29L613.012 1209.34V1163.2H665.917V1132.64Z" stroke="white" stroke-width="1.73201"/>
</g>
<g clip-path="url(#clip18_818_5372)">
<path d="M756.929 1209.14H813.898C818.843 1209.14 823.585 1207.17 827.081 1203.68C830.576 1200.18 832.54 1195.44 832.54 1190.49V1104.55C832.541 1099.6 830.574 1094.85 827.072 1091.35C823.57 1087.85 818.821 1085.88 813.869 1085.88H790.112L738.285 1137.71V1190.49C738.285 1192.94 738.767 1195.37 739.704 1197.63C740.641 1199.89 742.014 1201.95 743.745 1203.68C745.477 1205.41 747.532 1206.78 749.794 1207.72C752.056 1208.66 754.481 1209.14 756.929 1209.14V1209.14ZM771.431 1116.43H799.504L799.397 1178.58H771.431V1116.43Z" stroke="white" stroke-width="3"/>
<path d="M813.885 1218.55H756.933C754.483 1218.55 752.058 1219.03 749.796 1219.97C747.533 1220.91 745.477 1222.28 743.745 1224.01C742.013 1225.74 740.64 1227.8 739.702 1230.06C738.765 1232.33 738.283 1234.75 738.283 1237.2V1323.19C738.283 1325.64 738.765 1328.07 739.702 1330.33C740.64 1332.59 742.013 1334.65 743.745 1336.38C745.477 1338.11 747.533 1339.48 749.796 1340.42C752.058 1341.36 754.483 1341.84 756.933 1341.84H813.885C816.338 1341.84 818.767 1341.36 821.033 1340.42C823.299 1339.48 825.358 1338.1 827.093 1336.37C828.827 1334.64 830.203 1332.58 831.141 1330.31C832.08 1328.04 832.563 1325.62 832.563 1323.16V1270.44H781.991V1295.82H799.519V1311.28H771.437V1249.12H799.519V1260.33H832.563V1237.23C832.563 1232.28 830.595 1227.52 827.092 1224.02C823.59 1220.52 818.839 1218.55 813.885 1218.55V1218.55Z" stroke="white" stroke-width="3"/>
<path d="M1086.86 1290.27V1237.2C1086.86 1234.75 1086.38 1232.33 1085.44 1230.06C1084.5 1227.8 1083.13 1225.74 1081.4 1224.01C1079.66 1222.28 1077.61 1220.91 1075.35 1219.97C1073.08 1219.03 1070.66 1218.55 1068.21 1218.55H992.578V1341.84H1035.28L1086.86 1290.27ZM1025.62 1249.12H1053.71V1311.28H1025.62V1249.12Z" stroke="white" stroke-width="3"/>
<path d="M919.055 1298.4V1293.72C924 1293.72 928.742 1291.75 932.238 1288.26C935.735 1284.76 937.699 1280.02 937.7 1275.07V1237.27C937.699 1232.32 935.735 1227.58 932.238 1224.08C928.742 1220.59 924 1218.62 919.055 1218.62H843.442V1341.88H876.586V1299.93H893.162L906.627 1341.88H942.881L932.711 1308.51C931.819 1305.58 930.01 1303.02 927.551 1301.2C925.093 1299.38 922.115 1298.4 919.055 1298.4V1298.4ZM904.554 1267.82H876.586V1249.18H904.554V1267.82Z" stroke="white" stroke-width="3"/>
<path d="M981.57 1218.63H948.417V1341.92H981.57V1218.63Z" stroke="white" stroke-width="3"/>
<path d="M930.986 1132.64H878.081V1116.59H935.73V1086.03H844.344V1209.29L878.081 1209.34V1163.2H930.986V1132.64Z" stroke="white" stroke-width="3"/>
<path d="M1035.06 1132.64H982.153V1116.59H1039.8V1086.03H948.417V1209.29L982.153 1209.34V1163.2H1035.06V1132.64Z" stroke="white" stroke-width="3"/>
</g>
<g clip-path="url(#clip19_818_5372)">
<path d="M1126.07 1209.14H1183.04C1187.98 1209.14 1192.73 1207.17 1196.22 1203.68C1199.72 1200.18 1201.68 1195.44 1201.68 1190.49V1104.55C1201.68 1099.6 1199.71 1094.85 1196.21 1091.35C1192.71 1087.85 1187.96 1085.88 1183.01 1085.88H1159.25L1107.43 1137.71V1190.49C1107.43 1192.94 1107.91 1195.37 1108.85 1197.63C1109.78 1199.89 1111.16 1201.95 1112.89 1203.68C1114.62 1205.41 1116.67 1206.78 1118.94 1207.72C1121.2 1208.66 1123.62 1209.14 1126.07 1209.14V1209.14ZM1140.57 1116.43H1168.65L1168.54 1178.58H1140.57V1116.43Z" stroke="white" stroke-width="3"/>
<path d="M1183.03 1218.55H1126.07C1123.62 1218.55 1121.2 1219.03 1118.94 1219.97C1116.67 1220.91 1114.62 1222.28 1112.89 1224.01C1111.15 1225.74 1109.78 1227.8 1108.84 1230.06C1107.91 1232.33 1107.42 1234.75 1107.42 1237.2V1323.19C1107.42 1325.64 1107.91 1328.07 1108.84 1330.33C1109.78 1332.59 1111.15 1334.65 1112.89 1336.38C1114.62 1338.11 1116.67 1339.48 1118.94 1340.42C1121.2 1341.36 1123.62 1341.84 1126.07 1341.84H1183.03C1185.48 1341.84 1187.91 1341.36 1190.17 1340.42C1192.44 1339.48 1194.5 1338.1 1196.23 1336.37C1197.97 1334.64 1199.34 1332.58 1200.28 1330.31C1201.22 1328.04 1201.7 1325.62 1201.7 1323.16V1270.44H1151.13V1295.82H1168.66V1311.28H1140.58V1249.12H1168.66V1260.33H1201.7V1237.23C1201.7 1232.28 1199.74 1227.52 1196.23 1224.02C1192.73 1220.52 1187.98 1218.55 1183.03 1218.55V1218.55Z" stroke="white" stroke-width="3"/>
<path d="M1456 1290.27V1237.2C1456 1234.75 1455.52 1232.33 1454.58 1230.06C1453.64 1227.8 1452.27 1225.74 1450.54 1224.01C1448.81 1222.28 1446.75 1220.91 1444.49 1219.97C1442.22 1219.03 1439.8 1218.55 1437.35 1218.55H1361.72V1341.84H1404.42L1456 1290.27ZM1394.76 1249.12H1422.85V1311.28H1394.76V1249.12Z" stroke="white" stroke-width="3"/>
<path d="M1288.2 1298.4V1293.72C1293.14 1293.72 1297.88 1291.75 1301.38 1288.26C1304.88 1284.76 1306.84 1280.02 1306.84 1275.07V1237.27C1306.84 1232.32 1304.88 1227.58 1301.38 1224.08C1297.88 1220.59 1293.14 1218.62 1288.2 1218.62H1212.58V1341.88H1245.73V1299.93H1262.3L1275.77 1341.88H1312.02L1301.85 1308.51C1300.96 1305.58 1299.15 1303.02 1296.69 1301.2C1294.23 1299.38 1291.26 1298.4 1288.2 1298.4V1298.4ZM1273.7 1267.82H1245.73V1249.18H1273.7V1267.82Z" stroke="white" stroke-width="3"/>
<path d="M1350.71 1218.63H1317.56V1341.92H1350.71V1218.63Z" stroke="white" stroke-width="3"/>
<path d="M1300.13 1132.64H1247.22V1116.59H1304.87V1086.03H1213.49V1209.29L1247.22 1209.34V1163.2H1300.13V1132.64Z" stroke="white" stroke-width="3"/>
<path d="M1404.2 1132.64H1351.29V1116.59H1408.94V1086.03H1317.56V1209.29L1351.29 1209.34V1163.2H1404.2V1132.64Z" stroke="white" stroke-width="3"/>
</g>
<defs>
<clipPath id="clip0_818_5372">
<rect width="348.576" height="256.045" fill="white"/>
</clipPath>
<clipPath id="clip1_818_5372">
<rect width="348.576" height="256.045" fill="white" transform="translate(369.142)"/>
</clipPath>
<clipPath id="clip2_818_5372">
<rect width="348.576" height="256.045" fill="white" transform="translate(738.283)"/>
</clipPath>
<clipPath id="clip3_818_5372">
<rect width="348.576" height="256.045" fill="white" transform="translate(1107.42)"/>
</clipPath>
<clipPath id="clip4_818_5372">
<rect width="348.576" height="256.045" fill="white" transform="translate(0 271.469)"/>
</clipPath>
<clipPath id="clip5_818_5372">
<rect width="348.576" height="256.045" fill="white" transform="translate(369.142 271.469)"/>
</clipPath>
<clipPath id="clip6_818_5372">
<rect width="348.576" height="256.045" fill="white" transform="translate(738.283 271.469)"/>
</clipPath>
<clipPath id="clip7_818_5372">
<rect width="348.576" height="256.045" fill="white" transform="translate(1107.42 271.469)"/>
</clipPath>
<clipPath id="clip8_818_5372">
<rect width="348.576" height="256.045" fill="white" transform="translate(0 542.938)"/>
</clipPath>
<clipPath id="clip9_818_5372">
<rect width="348.576" height="256.045" fill="white" transform="translate(369.142 542.938)"/>
</clipPath>
<clipPath id="clip10_818_5372">
<rect width="348.576" height="256.045" fill="white" transform="translate(738.283 542.938)"/>
</clipPath>
<clipPath id="clip11_818_5372">
<rect width="348.576" height="256.045" fill="white" transform="translate(1107.42 542.938)"/>
</clipPath>
<clipPath id="clip12_818_5372">
<rect width="348.576" height="256.045" fill="white" transform="translate(0 814.408)"/>
</clipPath>
<clipPath id="clip13_818_5372">
<rect width="348.576" height="256.045" fill="white" transform="translate(369.142 814.408)"/>
</clipPath>
<clipPath id="clip14_818_5372">
<rect width="348.576" height="256.045" fill="white" transform="translate(738.283 814.408)"/>
</clipPath>
<clipPath id="clip15_818_5372">
<rect width="348.576" height="256.045" fill="white" transform="translate(1107.42 814.408)"/>
</clipPath>
<clipPath id="clip16_818_5372">
<rect width="348.576" height="256.045" fill="white" transform="translate(0 1085.88)"/>
</clipPath>
<clipPath id="clip17_818_5372">
<rect width="348.576" height="256.045" fill="white" transform="translate(369.142 1085.88)"/>
</clipPath>
<clipPath id="clip18_818_5372">
<rect width="348.576" height="256.045" fill="white" transform="translate(738.283 1085.88)"/>
</clipPath>
<clipPath id="clip19_818_5372">
<rect width="348.576" height="256.045" fill="white" transform="translate(1107.42 1085.88)"/>
</clipPath>
</defs>
</svg>
