<svg width="22" height="22" viewBox="0 0 22 22" fill="none" xmlns="http://www.w3.org/2000/svg">
<path d="M11.5 5.28027C14.4531 5.28027 16.8906 7.71777 16.8906 10.6709C16.8906 13.6709 14.4531 16.0615 11.5 16.0615C8.5 16.0615 6.10938 13.6709 6.10938 10.6709C6.10938 7.71777 8.5 5.28027 11.5 5.28027ZM11.5 14.1865C13.4219 14.1865 14.9688 12.6396 14.9688 10.6709C14.9688 8.74902 13.4219 7.20215 11.5 7.20215C9.53125 7.20215 7.98438 8.74902 7.98438 10.6709C7.98438 12.6396 9.57812 14.1865 11.5 14.1865ZM18.3438 5.09277C18.3438 5.7959 17.7812 6.3584 17.0781 6.3584C16.375 6.3584 15.8125 5.7959 15.8125 5.09277C15.8125 4.38965 16.375 3.82715 17.0781 3.82715C17.7812 3.82715 18.3438 4.38965 18.3438 5.09277ZM21.9062 6.3584C22 8.09277 22 13.2959 21.9062 15.0303C21.8125 16.7178 21.4375 18.1709 20.2188 19.4365C19 20.6553 17.5 21.0303 15.8125 21.124C14.0781 21.2178 8.875 21.2178 7.14062 21.124C5.45312 21.0303 4 20.6553 2.73438 19.4365C1.51562 18.1709 1.14062 16.7178 1.04688 15.0303C0.953125 13.2959 0.953125 8.09277 1.04688 6.3584C1.14062 4.6709 1.51562 3.1709 2.73438 1.95215C4 0.733398 5.45312 0.358398 7.14062 0.264648C8.875 0.170898 14.0781 0.170898 15.8125 0.264648C17.5 0.358398 19 0.733398 20.2188 1.95215C21.4375 3.1709 21.8125 4.6709 21.9062 6.3584ZM19.6562 16.8584C20.2188 15.499 20.0781 12.2178 20.0781 10.6709C20.0781 9.1709 20.2188 5.88965 19.6562 4.4834C19.2812 3.59277 18.5781 2.84277 17.6875 2.51465C16.2812 1.95215 13 2.09277 11.5 2.09277C9.95312 2.09277 6.67188 1.95215 5.3125 2.51465C4.375 2.88965 3.67188 3.59277 3.29688 4.4834C2.73438 5.88965 2.875 9.1709 2.875 10.6709C2.875 12.2178 2.73438 15.499 3.29688 16.8584C3.67188 17.7959 4.375 18.499 5.3125 18.874C6.67188 19.4365 9.95312 19.2959 11.5 19.2959C13 19.2959 16.2812 19.4365 17.6875 18.874C18.5781 18.499 19.3281 17.7959 19.6562 16.8584Z" fill="currentColor"/>
</svg>
