<svg width="220" height="40" viewBox="0 0 220 40" fill="none" xmlns="http://www.w3.org/2000/svg">
<g clip-path="url(#clip0_2_349)">
<path d="M131.606 0.0288086H113.163C112.37 0.0288086 111.585 0.185019 110.852 0.48852C110.12 0.792021 109.454 1.23687 108.893 1.79766C108.332 2.35846 107.888 3.02421 107.584 3.75692C107.281 4.48963 107.124 5.27493 107.124 6.068V33.9138C107.124 34.7069 107.281 35.4922 107.584 36.2249C107.888 36.9576 108.332 37.6233 108.893 38.1841C109.454 38.7449 110.12 39.1897 110.852 39.4932C111.585 39.7967 112.37 39.9529 113.163 39.9529H131.606C132.4 39.9529 133.187 39.7965 133.92 39.4925C134.654 39.1886 135.321 38.7431 135.883 38.1814C136.444 37.6198 136.89 36.9531 137.194 36.2192C137.498 35.4854 137.654 34.6989 137.654 33.9047V16.8319H121.277V25.0517H126.954V30.0557H117.86V9.92648H126.954V13.5579H137.654V6.07758C137.654 4.47341 137.017 2.93496 135.883 1.80061C134.748 0.666271 133.21 0.0289408 131.606 0.0288086V0.0288086Z" fill="#CEFA05"/>
<path d="M220 23.2517V6.068C220 5.27492 219.844 4.4896 219.54 3.75688C219.237 3.02416 218.792 2.3584 218.231 1.7976C217.67 1.23681 217.005 0.791963 216.272 0.488472C215.539 0.184981 214.754 0.0287868 213.961 0.0288086H189.47V39.9529H203.299L220 23.2517ZM200.17 9.92648H209.265V30.0557H200.17V9.92648Z" fill="#CEFA05"/>
<path d="M165.662 25.885V24.3699C167.263 24.3698 168.799 23.7337 169.931 22.6015C171.063 21.4693 171.699 19.9337 171.699 18.3326V6.08961C171.699 4.48844 171.063 2.95288 169.931 1.82068C168.799 0.68848 167.263 0.0523636 165.662 0.0522461H141.177V39.9667H151.91V26.3829H157.277L161.637 39.9667H173.377L170.084 29.1602C169.795 28.2125 169.209 27.3828 168.413 26.7931C167.617 26.2035 166.653 25.8851 165.662 25.885ZM160.966 15.9849H151.909V9.94754H160.966V15.9849Z" fill="#CEFA05"/>
<path d="M185.905 0.0551758H175.17V39.9793H185.905V0.0551758Z" fill="#CEFA05"/>
<path d="M6.03736 39.9144H24.4853C26.0864 39.9143 27.6218 39.2781 28.7539 38.1459C29.8859 37.0137 30.5219 35.4782 30.5219 33.8771V6.047C30.5219 4.44334 29.885 2.90534 28.7511 1.77132C27.6172 0.637292 26.0793 0.000132188 24.4756 0L16.7828 0L6.35093e-09 16.7828V33.8769C-3.6359e-05 34.6697 0.156098 35.4548 0.459488 36.1873C0.762878 36.9199 1.20758 37.5854 1.76821 38.1461C2.32883 38.7067 2.9944 39.1515 3.7269 39.4549C4.45941 39.7583 5.2445 39.9145 6.03736 39.9144V39.9144ZM10.7333 9.89463H19.8242L19.7893 30.0192H10.7333V9.89463Z" fill="#CEFA05"/>
<path d="M62.4006 15.1439H45.2689V9.94524H63.9369V0.0507812H34.3444V39.9648L45.2689 39.9792V25.0389H62.4006V15.1439Z" fill="#CEFA05"/>
<path d="M96.1013 15.1439H78.9696V9.94524H97.6376V0.0507812H68.045V39.9648L78.9696 39.9792V25.0389H96.1013V15.1439Z" fill="#CEFA05"/>
</g>
<defs>
<clipPath id="clip0_2_349">
<rect width="220" height="39.9792" fill="white"/>
</clipPath>
</defs>
</svg>
